<svg width="24" height="24" viewBox="0 0 24 24" fill="none" xmlns="http://www.w3.org/2000/svg">
<path fill-rule="evenodd" clip-rule="evenodd" d="M2.81999 15.8L2.52699 16.872C2.41799 17.2145 2.26499 17.7185 2.18249 18.167C2.03051 18.5683 1.97227 18.9989 2.01224 19.4261C2.0522 19.8533 2.1893 20.2657 2.41306 20.6318C2.63683 20.9979 2.94133 21.308 3.30329 21.5383C3.66525 21.7687 4.07509 21.9133 4.50149 21.961C4.89749 22.018 5.34549 22.015 5.84749 21.941L8.15399 21.623C8.43776 21.5838 8.70377 21.4622 8.91898 21.2731C9.13418 21.084 9.2891 20.8359 9.36449 20.5595L10.952 14.7285L2.81999 15.8Z" fill="url(#paint0_linear_138001_81)"/>
<path d="M5.07015 16.0759C2.63865 16.4524 2.13965 18.2869 2.13965 18.2869L4.46815 9.73193L16.6342 8.08643L14.9752 14.1124C14.9322 14.2722 14.8437 14.4159 14.7205 14.5263C14.5973 14.6366 14.4446 14.7088 14.2812 14.7339L14.2132 14.7454L5.00165 16.0874L5.07015 16.0759Z" fill="url(#paint1_linear_138001_81)"/>
<path d="M5.07015 16.0759C2.63865 16.4524 2.13965 18.2869 2.13965 18.2869L4.46815 9.73193L16.6342 8.08643L14.9752 14.1124C14.9322 14.2722 14.8437 14.4159 14.7205 14.5263C14.5973 14.6366 14.4446 14.7088 14.2812 14.7339L14.2132 14.7454L5.00165 16.0874L5.07015 16.0759Z" fill="url(#paint2_linear_138001_81)" fill-opacity="0.8"/>
<path d="M6.44984 10.6176L19.9188 8.62756C20.0744 8.60592 20.2202 8.53888 20.3378 8.43482C20.4555 8.33077 20.5398 8.19432 20.5803 8.04256L21.9703 3.01256C22.0059 2.8857 22.0094 2.75203 21.9807 2.62347C21.9519 2.49491 21.8918 2.37547 21.8056 2.27583C21.7194 2.17619 21.6099 2.09945 21.4868 2.05246C21.3638 2.00547 21.231 1.9897 21.1003 2.00656L8.24934 3.90506C7.56966 4.01551 6.93605 4.31897 6.42395 4.7793C5.91184 5.23964 5.54283 5.83745 5.36084 6.50156L3.50684 13.2191C3.87884 11.8606 4.10784 11.0416 6.44984 10.6176Z" fill="url(#paint3_linear_138001_81)"/>
<path d="M6.44984 10.6176L19.9188 8.62756C20.0744 8.60592 20.2202 8.53888 20.3378 8.43482C20.4555 8.33077 20.5398 8.19432 20.5803 8.04256L21.9703 3.01256C22.0059 2.8857 22.0094 2.75203 21.9807 2.62347C21.9519 2.49491 21.8918 2.37547 21.8056 2.27583C21.7194 2.17619 21.6099 2.09945 21.4868 2.05246C21.3638 2.00547 21.231 1.9897 21.1003 2.00656L8.24934 3.90506C7.56966 4.01551 6.93605 4.31897 6.42395 4.7793C5.91184 5.23964 5.54283 5.83745 5.36084 6.50156L3.50684 13.2191C3.87884 11.8606 4.10784 11.0416 6.44984 10.6176Z" fill="url(#paint4_linear_138001_81)"/>
<path d="M6.44984 10.6176L19.9188 8.62756C20.0744 8.60592 20.2202 8.53888 20.3378 8.43482C20.4555 8.33077 20.5398 8.19432 20.5803 8.04256L21.9703 3.01256C22.0059 2.8857 22.0094 2.75203 21.9807 2.62347C21.9519 2.49491 21.8918 2.37547 21.8056 2.27583C21.7194 2.17619 21.6099 2.09945 21.4868 2.05246C21.3638 2.00547 21.231 1.9897 21.1003 2.00656L8.24934 3.90506C7.56966 4.01551 6.93605 4.31897 6.42395 4.7793C5.91184 5.23964 5.54283 5.83745 5.36084 6.50156L3.50684 13.2191C3.87884 11.8606 4.10784 11.0416 6.44984 10.6176Z" fill="url(#paint5_linear_138001_81)" fill-opacity="0.4"/>
<path d="M6.44965 10.6182C4.49915 10.9712 4.01465 11.5992 3.69265 12.5837L2.13965 18.2887C2.13965 18.2887 2.63565 16.4722 5.03765 16.0837L14.2137 14.7472L14.2817 14.7362C14.4452 14.711 14.5978 14.6388 14.721 14.5283C14.8443 14.4179 14.9327 14.274 14.9757 14.1142L16.3407 9.15674L6.44965 10.6182Z" fill="url(#paint6_linear_138001_81)"/>
<path d="M6.44965 10.6182C4.49915 10.9712 4.01465 11.5992 3.69265 12.5837L2.13965 18.2887C2.13965 18.2887 2.63565 16.4722 5.03765 16.0837L14.2137 14.7472L14.2817 14.7362C14.4452 14.711 14.5978 14.6388 14.721 14.5283C14.8443 14.4179 14.9327 14.274 14.9757 14.1142L16.3407 9.15674L6.44965 10.6182Z" fill="url(#paint7_linear_138001_81)" fill-opacity="0.2"/>
<path fill-rule="evenodd" clip-rule="evenodd" d="M5.03785 16.0837C3.00785 16.4122 2.34135 17.7567 2.18285 18.1662C2.03068 18.5675 1.9723 18.9982 2.01217 19.4256C2.05204 19.8529 2.18911 20.2654 2.41289 20.6316C2.63667 20.9978 2.94124 21.308 3.3033 21.5385C3.66537 21.7689 4.07533 21.9135 4.50185 21.9612C4.89785 22.0182 5.34585 22.0152 5.84785 21.9412L8.15435 21.6232C8.43819 21.5839 8.70424 21.4622 8.91945 21.273C9.13466 21.0839 9.28955 20.8356 9.36485 20.5592L10.8119 15.2432L5.03835 16.0842L5.03785 16.0837Z" fill="url(#paint8_linear_138001_81)"/>
<defs>
<linearGradient id="paint0_linear_138001_81" x1="6.47649" y1="22.0005" x2="6.47649" y2="14.7285" gradientUnits="userSpaceOnUse">
<stop offset="0.056" stop-color="#2AAC94"/>
<stop offset="0.155" stop-color="#239C87"/>
<stop offset="0.372" stop-color="#177E71"/>
<stop offset="0.588" stop-color="#0E6961"/>
<stop offset="0.799" stop-color="#095D57"/>
<stop offset="1" stop-color="#085954"/>
</linearGradient>
<linearGradient id="paint1_linear_138001_81" x1="15.6657" y1="16.7239" x2="8.64315" y2="9.08642" gradientUnits="userSpaceOnUse">
<stop offset="0.042" stop-color="#ABE88E"/>
<stop offset="0.549" stop-color="#2AAA92"/>
<stop offset="0.906" stop-color="#117865"/>
</linearGradient>
<linearGradient id="paint2_linear_138001_81" x1="-1.59085" y1="16.3524" x2="5.09165" y2="14.0734" gradientUnits="userSpaceOnUse">
<stop stop-color="#6AD6F9"/>
<stop offset="1" stop-color="#6AD6F9" stop-opacity="0"/>
</linearGradient>
<linearGradient id="paint3_linear_138001_81" x1="3.50684" y1="7.60956" x2="21.2948" y2="7.60956" gradientUnits="userSpaceOnUse">
<stop offset="0.043" stop-color="#25FFD4"/>
<stop offset="0.874" stop-color="#55DDB9"/>
</linearGradient>
<linearGradient id="paint4_linear_138001_81" x1="3.50684" y1="5.12356" x2="19.5303" y2="12.5641" gradientUnits="userSpaceOnUse">
<stop stop-color="#6AD6F9"/>
<stop offset="0.23" stop-color="#60E9D0"/>
<stop offset="0.651" stop-color="#6DE9BB"/>
<stop offset="0.994" stop-color="#ABE88E"/>
</linearGradient>
<linearGradient id="paint5_linear_138001_81" x1="4.98934" y1="6.51556" x2="13.7023" y2="8.44256" gradientUnits="userSpaceOnUse">
<stop stop-color="white" stop-opacity="0"/>
<stop offset="0.459" stop-color="white"/>
<stop offset="1" stop-color="white" stop-opacity="0"/>
</linearGradient>
<linearGradient id="paint6_linear_138001_81" x1="7.87815" y1="13.9797" x2="8.08415" y2="7.86974" gradientUnits="userSpaceOnUse">
<stop offset="0.205" stop-color="#063D3B" stop-opacity="0"/>
<stop offset="0.586" stop-color="#063D3B" stop-opacity="0.237"/>
<stop offset="0.872" stop-color="#063D3B" stop-opacity="0.75"/>
</linearGradient>
<linearGradient id="paint7_linear_138001_81" x1="1.40515" y1="13.3722" x2="8.85065" y2="14.7727" gradientUnits="userSpaceOnUse">
<stop stop-color="white" stop-opacity="0"/>
<stop offset="0.459" stop-color="white"/>
<stop offset="1" stop-color="white" stop-opacity="0"/>
</linearGradient>
<linearGradient id="paint8_linear_138001_81" x1="6.78385" y1="19.9857" x2="5.33135" y2="12.8822" gradientUnits="userSpaceOnUse">
<stop offset="0.064" stop-color="#063D3B" stop-opacity="0"/>
<stop offset="0.17" stop-color="#063D3B" stop-opacity="0.135"/>
<stop offset="0.562" stop-color="#063D3B" stop-opacity="0.599"/>
<stop offset="0.85" stop-color="#063D3B" stop-opacity="0.9"/>
<stop offset="1" stop-color="#063D3B"/>
</linearGradient>
</defs>
</svg>
