<svg width="24" height="25" viewBox="0 0 24 25" fill="none" xmlns="http://www.w3.org/2000/svg">
<path d="M23.2002 14.4636C23.1705 13.5108 22.8032 12.5996 22.1639 11.8925C21.5246 11.1854 20.6549 10.7285 19.7099 10.6032C19.6521 9.27169 19.0723 8.01648 18.0959 7.10932C17.1195 6.20216 15.8251 5.71605 14.4929 5.75621C13.4215 5.74498 12.3727 6.06471 11.4898 6.67173C10.6068 7.27875 9.93275 8.14349 9.55957 9.14788C8.40864 9.28165 7.34501 9.82741 6.56516 10.6843C5.7853 11.5413 5.34191 12.6515 5.31689 13.8099C5.38391 15.0901 5.94665 16.294 6.88591 17.1665C7.82518 18.039 9.0672 18.5116 10.3489 18.4842H18.9822H19.2042C20.2633 18.4682 21.2741 18.0386 22.0208 17.2874C22.7674 16.5361 23.1907 15.5227 23.2002 14.4636Z" fill="url(#paint0_linear_4749_17577)"/>
<path d="M19.3767 15.3145C19.3475 14.3362 18.972 13.3999 18.3169 12.6726C17.6619 11.9453 16.77 11.4742 15.8 11.3432C15.7328 9.98107 15.1324 8.70009 14.1285 7.777C13.1247 6.85391 11.798 6.36282 10.435 6.40983C9.33284 6.38622 8.25037 6.70428 7.33617 7.32038C6.42197 7.93647 5.72084 8.82039 5.329 9.85083C4.16122 9.99434 3.08318 10.5505 2.28938 11.4189C1.49557 12.2873 1.03828 13.4109 1 14.5868C1.05139 15.9108 1.62541 17.1604 2.59632 18.062C3.56723 18.9635 4.85588 19.4435 6.18001 19.3968H6.63634H15.0107H15.2327C16.3192 19.3906 17.3604 18.9605 18.1344 18.1979C18.9085 17.4354 19.3542 16.4008 19.3767 15.3145Z" fill="url(#paint1_linear_4749_17577)"/>
<path d="M6.94553 13.033H7.99387C8.03287 13.0322 8.07163 13.0395 8.1077 13.0543C8.14378 13.0692 8.1764 13.0913 8.20353 13.1193L10.6702 15.586C10.6997 15.6137 10.7232 15.6471 10.7393 15.6842C10.7553 15.7214 10.7636 15.7614 10.7636 15.8018C10.7636 15.8423 10.7553 15.8823 10.7393 15.9194C10.7232 15.9566 10.6997 15.99 10.6702 16.0177L7.31553 19.3107C7.28797 19.3381 7.25527 19.3599 7.21929 19.3747C7.18332 19.3895 7.14477 19.3971 7.10587 19.397H6.10686C6.05137 19.388 5.9994 19.3639 5.95659 19.3275C5.91378 19.291 5.88175 19.2435 5.86397 19.1902C5.84619 19.1369 5.84333 19.0797 5.85571 19.0248C5.86809 18.97 5.89523 18.9195 5.9342 18.879L8.7832 15.993C8.81237 15.9664 8.83568 15.934 8.85162 15.8979C8.86756 15.8618 8.8758 15.8228 8.8758 15.7833C8.8758 15.7439 8.86756 15.7048 8.85162 15.6687C8.83568 15.6326 8.81237 15.6003 8.7832 15.5737L6.73587 13.5387C6.69432 13.4973 6.66601 13.4445 6.65453 13.3869C6.64305 13.3294 6.64891 13.2698 6.67138 13.2156C6.69384 13.1614 6.73189 13.1152 6.7807 13.0827C6.82951 13.0501 6.88688 13.0329 6.94553 13.033ZM11.1759 8.87666H12.2489C12.3289 8.88104 12.4041 8.91643 12.4585 8.97533L14.3455 10.887C14.3731 10.9145 14.395 10.9472 14.41 10.9832C14.4249 11.0191 14.4326 11.0577 14.4326 11.0967C14.4326 11.1356 14.4249 11.1742 14.41 11.2102C14.395 11.2462 14.3731 11.2788 14.3455 11.3063L11.8789 13.662C11.8513 13.6895 11.8186 13.7112 11.7826 13.726C11.7467 13.7409 11.7081 13.7484 11.6692 13.7483H10.7689C10.7115 13.7456 10.6561 13.7269 10.6088 13.6944C10.5615 13.6619 10.5242 13.6168 10.5012 13.5643C10.4781 13.5117 10.4702 13.4538 10.4782 13.397C10.4863 13.3402 10.5101 13.2867 10.5469 13.2427L12.4339 11.3433C12.4868 11.2863 12.5161 11.2114 12.5161 11.1337C12.5161 11.0559 12.4868 10.981 12.4339 10.924L10.9662 9.444C10.891 9.41619 10.8299 9.35964 10.7963 9.28678C10.7628 9.21393 10.7596 9.13073 10.7874 9.0555C10.8152 8.98026 10.8717 8.91916 10.9446 8.88562C11.0174 8.85208 11.1006 8.84886 11.1759 8.87666ZM13.3835 13.81H14.4319C14.5095 13.8144 14.5834 13.8448 14.6415 13.8963L16.1832 15.438C16.2361 15.495 16.2655 15.5699 16.2655 15.6477C16.2655 15.7254 16.2361 15.8003 16.1832 15.8573L13.9509 18.1143C13.9237 18.1424 13.8911 18.1645 13.855 18.1794C13.819 18.1942 13.7802 18.2015 13.7412 18.2007H12.7299C12.6712 18.2008 12.6139 18.1835 12.565 18.151C12.5162 18.1185 12.4782 18.0722 12.4557 18.018C12.4333 17.9639 12.4274 17.9042 12.4389 17.8467C12.4504 17.7892 12.4787 17.7364 12.5202 17.695L14.2715 15.919C14.3244 15.862 14.3538 15.7871 14.3538 15.7093C14.3538 15.6316 14.3244 15.5567 14.2715 15.4997L13.1739 14.3773C13.1342 14.3391 13.1059 14.2904 13.0924 14.237C13.0788 14.1835 13.0805 14.1273 13.0971 14.0747C13.1138 14.0222 13.1448 13.9753 13.1867 13.9394C13.2286 13.9035 13.2797 13.8801 13.3342 13.8717L13.3835 13.81Z" fill="white"/>
<defs>
<linearGradient id="paint0_linear_4749_17577" x1="14.2586" y1="18.1759" x2="14.2586" y2="5.07788" gradientUnits="userSpaceOnUse">
<stop stop-color="#0078D4"/>
<stop offset="0.16" stop-color="#1380DA"/>
<stop offset="0.53" stop-color="#3C91E5"/>
<stop offset="0.82" stop-color="#559CEC"/>
<stop offset="1" stop-color="#5EA0EF"/>
</linearGradient>
<linearGradient id="paint1_linear_4749_17577" x1="10.1883" y1="22.7392" x2="10.1883" y2="2.94416" gradientUnits="userSpaceOnUse">
<stop stop-color="#198AB3"/>
<stop offset="0.11" stop-color="#22A5CB"/>
<stop offset="0.23" stop-color="#29BADE"/>
<stop offset="0.37" stop-color="#2EC9EB"/>
<stop offset="0.53" stop-color="#31D1F3"/>
<stop offset="0.78" stop-color="#32D4F5"/>
</linearGradient>
</defs>
</svg>
