<svg width="24" height="24" viewBox="0 0 24 24" fill="none" xmlns="http://www.w3.org/2000/svg">
<path d="M20.5001 4.53813V4.49707H11.7715V4.53813V23.7535C11.813 23.7535 11.8546 23.7535 11.8962 23.7535H11.9793C11.9793 23.7535 11.9793 23.7535 12.0209 23.7535C16.7177 23.7535 20.5001 22.3985 20.5001 20.7151V4.53813Z" fill="#2687CE"/>
<path d="M11.7714 23.7534L12.5196 23.4249L12.6027 4.53809H3.5V20.7151C3.5 22.3574 7.19927 23.6713 11.7714 23.7534Z" fill="#0072C6"/>
<path d="M17.5489 15.5419C16.9255 15.5419 16.5929 15.9114 16.5929 16.6915V18.1286C16.5929 18.9908 16.3851 19.6067 15.9695 19.9351C15.5538 20.2636 14.8888 20.4278 13.9744 20.4278V19.2782C14.3069 19.2782 14.5978 19.1961 14.7225 19.0319C14.8888 18.8676 14.9719 18.5802 14.9719 18.1696V16.8558C14.9719 15.8704 15.3044 15.2545 15.9279 15.0081V14.9671C15.3044 14.7207 14.9719 14.0638 14.9719 13.0373V11.7645C14.9719 11.0665 14.6394 10.697 13.9744 10.697V9.54736C14.8888 9.54736 15.5538 9.7116 15.9695 10.0811C16.3851 10.4096 16.5929 11.0255 16.5929 11.8466V13.2426C16.5929 14.0227 16.9255 14.3923 17.5489 14.3923V15.5419Z" fill="white"/>
<path d="M9.44371 20.3869C8.52929 20.3869 7.86425 20.2227 7.4486 19.8942C7.03295 19.5657 6.82513 18.9909 6.82513 18.1287V16.6506C6.82513 15.9115 6.49261 15.501 5.86914 15.501V14.3513C6.49261 14.3513 6.82513 13.9407 6.82513 13.1606V11.7646C6.82513 10.9024 7.03295 10.3276 7.4486 9.95808C7.86425 9.62961 8.52929 9.42432 9.44371 9.42432V10.574C8.77868 10.574 8.44616 10.9435 8.44616 11.6415V12.9553C8.44616 13.9407 8.11364 14.5566 7.49017 14.844V14.8851C8.11364 15.1314 8.44616 15.7884 8.44616 16.7738V18.0466C8.44616 18.4572 8.52929 18.7446 8.69555 18.9088C8.86181 19.073 9.11119 19.1552 9.44371 19.1552V20.3869Z" fill="white"/>
<path d="M20.5 4.53832C20.5 6.22172 16.7176 7.57664 12.0208 7.57664C7.2824 7.57664 3.5 6.22172 3.5 4.53832C3.5 2.85493 7.2824 1.5 11.9792 1.5C16.676 1.5 20.5 2.85493 20.5 4.53832Z" fill="white"/>
<path d="M18.7552 4.37417C18.7552 5.48274 15.721 6.38603 11.9801 6.38603C8.23931 6.38603 5.20508 5.48274 5.20508 4.37417C5.20508 3.26559 8.23931 2.3623 11.9801 2.3623C15.721 2.3623 18.7552 3.26559 18.7552 4.37417Z" fill="#7FBA00"/>
<path d="M17.342 5.60592C18.2149 5.27745 18.7552 4.82581 18.7552 4.37417C18.7552 3.26559 15.721 2.3623 11.9801 2.3623C8.23931 2.3623 5.20508 3.26559 5.20508 4.37417C5.20508 4.82581 5.74542 5.27745 6.61828 5.60592C10.1513 4.5384 13.8506 4.5384 17.342 5.60592Z" fill="#B8D432"/>
</svg>
